<?xml version="1.0" encoding="UTF-8"?>
<svg id="Layer_2" data-name="Layer 2" xmlns="http://www.w3.org/2000/svg" viewBox="0 0 40 40">
  <defs>
    <style>
      .cls-1 {
        fill: #fff;
      }

      .cls-2 {
        fill: #467fa6;
      }
    </style>
  </defs>
  <g id="Layer_1-2" data-name="Layer 1">
    <g>
      <rect class="cls-2" width="40" height="40" rx="7.15" ry="7.15"/>
      <path class="cls-1" d="m17.51,28.35c-.24-.06-.42-.14-.42-.46,0-2.2.22-6.66.22-9.44,0-1.66-.56-2.16-1.38-2.78-.18-.12-.26-.3-.26-.46s.06-.32.2-.46c.68-.78,2.8-1.96,5.28-1.96.62,0,1.22.22,1.22.8,0,.48-.28,2.82-.28,4.96,0,3.44.34,6.98.38,9.2,0,.38-.08.5-.62.58-.78.1-1.94.12-2.96.12-.52,0-1-.02-1.38-.1Z"/>
    </g>
  </g>
</svg>