<?xml version="1.0" encoding="UTF-8"?>
<svg id="Layer_2" data-name="Layer 2" xmlns="http://www.w3.org/2000/svg" viewBox="0 0 40 40">
  <defs>
    <style>
      .cls-1 {
        fill: #fff;
      }

      .cls-2 {
        fill: #467fa6;
      }
    </style>
  </defs>
  <g id="Layer_1-2" data-name="Layer 1">
    <g>
      <rect class="cls-2" width="40" height="40" rx="7.15" ry="7.15"/>
      <path class="cls-1" d="m14.02,26.09c0-3.36,1.86-5.48,4.62-7.16,1.08-.66,1.32-.84,1.32-1.18,0-.24-.16-.38-.48-.38-.92,0-2.34.86-3.5,1.66-.1.06-.2.1-.3.1-.16,0-.32-.08-.44-.22-.78-.9-1.4-2.92-1.4-3.32,0-.2.06-.38.18-.56.76-1.16,3.04-2.3,5.68-2.3,2.86,0,5,1.42,5,4.56,0,2.48-1.06,3.76-3.96,5.34-.58.32-.98.62-.98.98,0,.28.22.36.66.36.46,0,1.14-.16,1.78-.48.34-.18.68-.4.94-.66.12-.12.24-.16.36-.16s.26.06.36.16c.58.58.92,1.58.92,2.56,0,1.48-.78,2.94-2.64,2.94-1.3,0-3.26-.14-5-.14-.84,0-1.8.08-2.2.08-.76,0-.92-.68-.92-2.18Z"/>
    </g>
  </g>
</svg>