<?xml version="1.0" encoding="UTF-8"?>
<svg id="Layer_2" data-name="Layer 2" xmlns="http://www.w3.org/2000/svg" viewBox="0 0 40 40">
  <defs>
    <style>
      .cls-1 {
        fill: #fff;
      }

      .cls-2 {
        fill: #467fa6;
      }
    </style>
  </defs>
  <g id="Layer_1-2" data-name="Layer 1">
    <g>
      <rect class="cls-2" width="40" height="40" rx="7.15" ry="7.15"/>
      <path class="cls-1" d="m14.71,26.36c-.06-.1-.1-.2-.1-.3,0-.12.04-.26.1-.38.48-1.12,1.44-2.82,1.92-3.44.1-.12.18-.16.26-.16s.16.04.22.1c.46.46,1.94,1.78,2.78,1.78.32,0,.5-.2.5-.5,0-.94-2-2.36-3.14-2.82-.18-.08-.26-.22-.26-.38,0-.1.04-.2.12-.28.78-.7,1.4-1.24,2.14-2.18.08-.1.16-.24.16-.36,0-.14-.1-.22-.32-.22-.68,0-1.92.26-2.74.68-.2.1-.32.2-.44.2s-.22-.08-.26-.2c-.5-1.32-.86-3.26-.86-4.36,0-.22.26-.34.42-.34,1.08-.06,2.62-.1,4.22-.1,1.88,0,3.88.06,5.32.18.36.04.48.2.48.42,0,1.88-1.02,4.6-2.14,6.02-.08.1-.14.18-.14.28,0,.08.04.16.14.22.94.64,2.1,1.8,2.1,3.94,0,2.5-1.96,4.58-5.38,4.58-2.8,0-4.48-1.54-5.1-2.38Z"/>
    </g>
  </g>
</svg>