<?xml version="1.0" encoding="UTF-8"?>
<svg id="Layer_2" data-name="Layer 2" xmlns="http://www.w3.org/2000/svg" viewBox="0 0 40 40">
  <defs>
    <style>
      .cls-1 {
        fill: #fff;
      }

      .cls-2 {
        fill: #467fa6;
      }
    </style>
  </defs>
  <g id="Layer_1-2" data-name="Layer 1">
    <g>
      <rect class="cls-2" width="40" height="40" rx="7.15" ry="7.15"/>
      <path class="cls-1" d="m23.45,27.24c0,.24-.2.44-.58.46-.32.02-.72.02-1.14.02-1,0-2.1-.04-2.58-.06-.46-.04-.58-.14-.58-.66,0-.38.06-.9.06-1.4,0-.38-.18-.5-.52-.5-.84,0-2.76.1-3.62.1-.54,0-.76-.36-.76-.82,0-3.74,1.78-9.04,2.96-11.26.24-.46.7-.66.98-.68.72-.08,1.62-.12,2.44-.12.88,0,1.66.04,2,.12.3.06.48.24.48.46,0,.12-.06.26-.16.38-2.66,3.16-4.36,6.38-4.36,7.64,0,.2.08.24.36.24.42,0,.7-.04.9-.22.14-.14.22-.34.26-.64.2-1.38.2-2.22.4-2.74.1-.28.22-.44.44-.6.54-.44,2.1-1.36,2.82-1.36.16,0,.26.1.26.34,0,.26-.2,1.78-.2,3.9,0,.38.18.46.46.48.16.02.4.02.6.02.32,0,.5.16.54.5.06.46.1,1.22.1,2.08,0,.5-.02,1.04-.06,1.56-.02.24-.14.42-.42.42-.26,0-.42-.02-.76-.02-.26,0-.42.14-.42.46,0,.5.1,1.06.1,1.9Z"/>
    </g>
  </g>
</svg>