<?xml version="1.0" encoding="UTF-8"?>
<svg id="Layer_2" data-name="Layer 2" xmlns="http://www.w3.org/2000/svg" viewBox="0 0 40 40">
  <defs>
    <style>
      .cls-1 {
        fill: #fff;
      }

      .cls-2 {
        fill: #467fa6;
      }
    </style>
  </defs>
  <g id="Layer_1-2" data-name="Layer 1">
    <g>
      <rect class="cls-2" width="40" height="40" rx="7.15" ry="7.15"/>
      <path class="cls-1" d="m15.28,12.17c1.08-.06,2.44-.1,3.84-.1,1.52,0,3.08.04,4.42.1.36.02.48.18.48.52,0,.76-.14,2.62-.4,3.72-.08.36-.2.5-.4.5-.08,0-.24-.04-.44-.1-.78-.26-2.2-.7-3.48-.7-.46,0-.78.1-.96.28-.18.18-.24.4-.24.7,0,.42.08.64.38.64.34,0,.94-.2,2.1-.2,3.02,0,3.92,2.3,3.92,4.82,0,3.74-2.02,5.34-5.78,5.34-2.26,0-3.66-.52-4.64-1.24-.4-.28-.58-.52-.58-.94,0-.66.7-2.62,1.14-3.42.08-.16.22-.24.36-.24.12,0,.26.06.42.16.62.44,1.94.98,3.24.98.96,0,1.44-.34,1.44-.96,0-.56-.34-.92-1.46-.92-.7,0-1.98.18-2.82.18-.34,0-.82-.12-1.22-.3-.54-.24-.72-.44-.72-.76,0-2.48.38-5.88.72-7.34.1-.46.32-.7.68-.72Z"/>
    </g>
  </g>
</svg>