<?xml version="1.0" encoding="UTF-8"?>
<svg id="Layer_2" data-name="Layer 2" xmlns="http://www.w3.org/2000/svg" viewBox="0 0 40 40">
  <defs>
    <style>
      .cls-1 {
        fill: #fff;
      }

      .cls-2 {
        fill: #467fa6;
      }
    </style>
  </defs>
  <g id="Layer_1-2" data-name="Layer 1">
    <g>
      <rect class="cls-2" width="40" height="40" rx="7.15" ry="7.15"/>
      <path class="cls-1" d="m20.95,11.63c1.84,0,3.32.26,4.08.58.24.1.34.26.34.46,0,.42-.52,2.96-1.14,4-.08.12-.2.16-.32.16-.42,0-1.48-.7-2.9-.7-1.5,0-1.92.8-1.92,1.52,0,.18.1.28.24.28.12,0,.24-.04.4-.1.42-.16,1.06-.32,2.12-.32,2.44,0,3.86,1.42,3.86,4.76,0,3.58-2.08,5.12-5.56,5.12-3.98,0-5.8-2.94-5.8-7.3,0-5.84,2.52-8.46,6.6-8.46Zm-.7,12c.62,0,.96-.7.96-1.52,0-1.08-.32-1.62-.94-1.62s-.98.5-.98,1.68c0,1,.32,1.46.96,1.46Z"/>
    </g>
  </g>
</svg>