<?xml version="1.0" encoding="UTF-8"?>
<svg id="Layer_2" data-name="Layer 2" xmlns="http://www.w3.org/2000/svg" viewBox="0 0 40 40">
  <defs>
    <style>
      .cls-1 {
        fill: #fff;
      }

      .cls-2 {
        fill: #467fa6;
      }
    </style>
  </defs>
  <g id="Layer_1-2" data-name="Layer 1">
    <g>
      <rect class="cls-2" width="40" height="40" rx="7.15" ry="7.15"/>
      <path class="cls-1" d="m17.15,24.03c0-3.56,2.68-5.4,2.68-6.22,0-.28-.24-.4-.52-.4-.72,0-2.02.78-2.7,1.28-.14.1-.26.14-.38.14-.18,0-.3-.14-.32-.3-.1-.84-.18-2.32-.2-3.66,0-.7.02-1.36.04-1.86.02-.44.28-.7.84-.72,1.5-.04,2.98-.06,4.34-.06s2.62.02,3.64.06c.44.02.6.26.64.9.06.9.06,1.42.06,1.92,0,1.88-.12,2.1-.6,2.82-1.14,1.6-1.82,3.28-1.82,4.64,0,.92.3,1.34.86,1.62.22.12.28.22.28.48,0,.88-.64,3.14-3.46,3.14-2.4,0-3.38-1.38-3.38-3.78Z"/>
    </g>
  </g>
</svg>