<?xml version="1.0" encoding="UTF-8"?>
<svg id="Layer_2" data-name="Layer 2" xmlns="http://www.w3.org/2000/svg" viewBox="0 0 40 40">
  <defs>
    <style>
      .cls-1 {
        fill: #fff;
      }

      .cls-2 {
        fill: #467fa6;
      }
    </style>
  </defs>
  <g id="Layer_1-2" data-name="Layer 1">
    <g>
      <rect class="cls-2" width="40" height="40" rx="7.15" ry="7.15"/>
      <path class="cls-1" d="m19.44,27.81c-3.26,0-5.56-1.2-5.56-4.1,0-2.16,1.06-3.26,1.5-3.74.08-.08.12-.18.12-.3,0-.08-.04-.18-.12-.26-.66-.68-1.16-1.58-1.16-3.12,0-2.88,2.38-4.26,5.44-4.26s5.08,1.3,5.08,4.26c0,1.4-.78,2.32-1.38,2.88-.08.1-.14.2-.14.32,0,.1.06.18.14.26.62.48,1.82,1.46,1.82,3.74,0,2.58-1.56,4.32-5.74,4.32Zm.04-12.4c-.72,0-1,.44-1,.96,0,.92.4,1.68,1,1.68s.98-.8.98-1.66c0-.58-.28-.98-.98-.98Zm.1,8.32c.44,0,.9-.26.9-.98,0-1.28-.54-1.86-.96-1.86-.52,0-.92.68-.92,1.82,0,.74.34,1.02.98,1.02Z"/>
    </g>
  </g>
</svg>