<?xml version="1.0" encoding="UTF-8"?>
<svg id="Layer_2" data-name="Layer 2" xmlns="http://www.w3.org/2000/svg" viewBox="0 0 40 40">
  <defs>
    <style>
      .cls-1 {
        fill: #fff;
      }

      .cls-2 {
        fill: #467fa6;
      }
    </style>
  </defs>
  <g id="Layer_1-2" data-name="Layer 1">
    <g>
      <rect class="cls-2" width="40" height="40" rx="7.15" ry="7.15"/>
      <path class="cls-1" d="m19.27,28.78c-1.84,0-3.32-.26-4.08-.58-.2-.08-.32-.28-.32-.48,0-.82.68-2.94,1.12-3.98.06-.12.18-.18.3-.18.1,0,.26.04.44.12.52.24,1.34.6,2.66.6,1.22,0,1.74-.8,1.74-1.52,0-.16-.1-.28-.26-.28-.1,0-.22.02-.36.06-.46.14-1.04.36-1.96.36-2.24,0-4.04-1.42-4.04-4.42,0-3.68,2.06-5.46,5.48-5.46,4.06,0,5.88,2.94,5.88,7.3,0,5.84-2.52,8.46-6.6,8.46Zm.7-12.24c-.62,0-.96.7-.96,1.52,0,1.08.32,1.62.94,1.62s.98-.5.98-1.68c0-1-.32-1.46-.96-1.46Z"/>
    </g>
  </g>
</svg>