<?xml version="1.0" encoding="UTF-8"?>
<svg id="Layer_2" data-name="Layer 2" xmlns="http://www.w3.org/2000/svg" viewBox="0 0 40 40">
  <defs>
    <style>
      .cls-1 {
        fill: #fff;
      }

      .cls-2 {
        fill: #253447;
      }
    </style>
  </defs>
  <g id="Layer_1-2" data-name="Layer 1">
    <g>
      <rect class="cls-2" width="40" height="40" rx="7.15" ry="7.15"/>
      <path class="cls-1" d="m12.47,21.29c0-5.52,2.8-11.02,8.15-11.02,4.02,0,5.87,2.65,5.87,5.3,0,.85-.2,1.4-.62,1.95-.92,1.22-3.35,3.02-4.5,3.02-.3,0-.4-.23-.4-.62,0-.45.05-1.1.05-1.7,0-1.22-.22-2.3-.9-2.3-.73,0-1.08,1.12-1.08,3.7,0,3.2.85,3.72,2.07,3.72,1.45,0,2.62-1,3.8-2.17.15-.15.27-.2.42-.2.65,0,1.22,1.52,1.22,3.42,0,2.95-2.1,5.75-6.4,5.75-4.85,0-7.7-2.92-7.7-8.85Z"/>
    </g>
  </g>
</svg>