<?xml version="1.0" encoding="UTF-8"?>
<svg id="Layer_2" data-name="Layer 2" xmlns="http://www.w3.org/2000/svg" viewBox="0 0 40 40">
  <defs>
    <style>
      .cls-1 {
        fill: #fff;
      }

      .cls-2 {
        fill: #253447;
      }
    </style>
  </defs>
  <g id="Layer_1-2" data-name="Layer 1">
    <g>
      <rect class="cls-2" width="40" height="40" rx="7.15" ry="7.15"/>
      <path class="cls-1" d="m11.45,21.83c-.17-.79-.18-.78-.3-1.41-.03-.24.03-.4.15-.47.15-.1.39-.1.6-.06,1.78.28,14.03-.35,16.66,1.14.1.05.17.13.23.21.13.2.1.46-.16.62-.49.31-14.72.14-16.31.4-.35.05-.78,0-.88-.42Zm8.5-7.9c2.05.48,2.77,1.04,3.22,2.98.42,1.83-1.36,2.64-3.4,2.58-2.32-.07-3.27-1.4-3.22-2.97s1.14-3.12,3.4-2.59Zm-.1,3.24c.95.03,1.34-.11,1.35-.42s-.37-.46-1.32-.49-1.35.08-1.36.41c-.01.35.38.48,1.33.51Zm.1,5.38c1.91-.51,3.28,1.06,3.22,2.98s-1.36,2.64-3.4,2.58c-2.32-.07-3.83-1.52-3.22-2.97s1.29-2.03,3.4-2.59Zm-.1,3.24c.95.03,1.34-.11,1.35-.42s-.37-.46-1.32-.49-1.35.08-1.36.41c-.01.35.38.48,1.33.51Z"/>
    </g>
  </g>
</svg>