<?xml version="1.0" encoding="UTF-8"?>
<svg id="Layer_2" data-name="Layer 2" xmlns="http://www.w3.org/2000/svg" viewBox="0 0 175.71 52.35">
  <defs>
    <style>
      .cls-1 {
        fill: #bcdfea;
      }

      .cls-2 {
        fill: #231f20;
      }
    </style>
  </defs>
  <g id="Layer_1-2" data-name="Layer 1">
    <g>
      <rect class="cls-1" width="175.71" height="52.35"/>
      <path class="cls-2" d="m121.07,30v-1.95h3.86v1.95h-3.86Zm.21-11.26v-2.07l3.45-1.23v2.11l-3.45,1.19Zm3.45,11.26v-14.56h2.13v14.56h-2.13Zm1.93,0v-1.95h3.47v1.95h-3.47Z"/>
      <path class="cls-2" d="m136.8,24.81c-1.27,0-2.25-.39-2.94-1.18s-1.04-1.9-1.04-3.33c0-1.55.44-2.76,1.32-3.62.88-.86,2.1-1.3,3.67-1.3,1.69,0,2.93.42,3.73,1.26.8.84,1.19,2.15,1.19,3.93l-1.7,1.87h-.76c-.21.76-.61,1.35-1.23,1.76s-1.36.62-2.24.62Zm-2.65,5.39l-.21-1.95c4.33-.18,6.5-2.13,6.5-5.84v-1.17l2.28-.68v.9c0,2.78-.71,4.89-2.12,6.34-1.41,1.45-3.56,2.25-6.46,2.39Zm3.41-7.28c.95,0,1.68-.25,2.19-.74s.77-1.19.77-2.09-.25-1.58-.74-2.08-1.18-.75-2.06-.75-1.54.27-2.03.8-.73,1.28-.73,2.24c0,.84.22,1.49.67,1.94.45.45,1.09.68,1.92.68Z"/>
      <path class="cls-2" d="m149.11,24.81c-1.27,0-2.25-.39-2.94-1.18s-1.04-1.9-1.04-3.33c0-1.55.44-2.76,1.32-3.62.88-.86,2.1-1.3,3.67-1.3,1.69,0,2.93.42,3.73,1.26.8.84,1.19,2.15,1.19,3.93l-1.7,1.87h-.76c-.21.76-.61,1.35-1.23,1.76s-1.36.62-2.24.62Zm-2.65,5.39l-.21-1.95c4.33-.18,6.5-2.13,6.5-5.84v-1.17l2.28-.68v.9c0,2.78-.71,4.89-2.12,6.34-1.41,1.45-3.56,2.25-6.46,2.39Zm3.41-7.28c.95,0,1.68-.25,2.19-.74s.77-1.19.77-2.09-.25-1.58-.74-2.08-1.18-.75-2.06-.75-1.54.27-2.03.8-.73,1.28-.73,2.24c0,.84.22,1.49.67,1.94.45.45,1.09.68,1.92.68Z"/>
      <path class="cls-2" d="m161.41,24.81c-1.27,0-2.25-.39-2.94-1.18s-1.04-1.9-1.04-3.33c0-1.55.44-2.76,1.32-3.62.88-.86,2.1-1.3,3.67-1.3,1.69,0,2.93.42,3.73,1.26.8.84,1.19,2.15,1.19,3.93l-1.7,1.87h-.76c-.21.76-.61,1.35-1.23,1.76s-1.36.62-2.24.62Zm-2.65,5.39l-.21-1.95c4.33-.18,6.5-2.13,6.5-5.84v-1.17l2.28-.68v.9c0,2.78-.71,4.89-2.12,6.34-1.41,1.45-3.56,2.25-6.46,2.39Zm3.41-7.28c.95,0,1.68-.25,2.19-.74s.77-1.19.77-2.09-.25-1.58-.74-2.08-1.18-.75-2.06-.75-1.54.27-2.03.8-.73,1.28-.73,2.24c0,.84.22,1.49.67,1.94.45.45,1.09.68,1.92.68Z"/>
    </g>
  </g>
</svg>