<?xml version="1.0" encoding="UTF-8"?>
<svg id="Layer_2" data-name="Layer 2" xmlns="http://www.w3.org/2000/svg" viewBox="0 0 85.24 40">
  <defs>
    <style>
      .cls-1 {
        fill: #fff;
      }

      .cls-2 {
        fill: #253447;
      }
    </style>
  </defs>
  <g id="Layer_1-2" data-name="Layer 1">
    <g>
      <rect class="cls-2" width="85.24" height="40" rx="7.15" ry="7.15"/>
      <path class="cls-1" d="m45.79,27.52c-1.23.12-3.03.18-4.86.18-1.98,0-3.99-.06-5.34-.18-.78-.03-1.32-.27-1.32-.99,0-1.11.12-2.25.3-3.42.12-.78.45-1.05.99-1.08,1.26-.12,3.21-.15,5.1-.15s3.78.03,4.89.15c1.08.09,1.56.39,1.56,1.41,0,.84-.09,2.13-.36,3.15-.12.57-.33.9-.96.93Zm.3-7.08c-1.2.09-3,.15-4.83.15-1.98,0-3.99-.06-5.37-.15-.78-.03-1.32-.3-1.32-.99,0-1.14.12-2.28.3-3.42.12-.78.45-1.08.99-1.11,1.26-.09,3.21-.15,5.1-.15s3.78.06,4.89.15c1.08.09,1.56.39,1.56,1.41,0,.84-.09,2.13-.36,3.18-.12.54-.33.9-.96.93Z"/>
    </g>
  </g>
</svg>