<?xml version="1.0" encoding="UTF-8"?>
<svg id="Layer_2" data-name="Layer 2" xmlns="http://www.w3.org/2000/svg" viewBox="0 0 40 40">
  <defs>
    <style>
      .cls-1 {
        fill: #fff;
      }

      .cls-2 {
        fill: #253447;
      }
    </style>
  </defs>
  <g id="Layer_1-2" data-name="Layer 1">
    <g>
      <rect class="cls-2" width="40" height="40" rx="7.15" ry="7.15"/>
      <path class="cls-1" d="m19.24,23.12c-.78.08-1.92.1-3.06.1-1.41,0-2.88-.05-3.84-.1-.75-.05-1.2-.31-1.2-1.08,0-1.28.18-2.39.66-3.93.21-.72.57-1.18,1.14-1.23.87-.08,2.16-.1,3.42-.1s10.37.36,11.12.44c.96.13,1.38.36,1.38,1.31,0,.69-.27,2.49-.72,3.85-.18.62-8.27.69-8.9.74Z"/>
    </g>
  </g>
</svg>