<?xml version="1.0" encoding="UTF-8"?>
<svg id="Layer_2" data-name="Layer 2" xmlns="http://www.w3.org/2000/svg" viewBox="0 0 40 40">
  <defs>
    <style>
      .cls-1 {
        fill: #fff;
      }

      .cls-2 {
        fill: #253447;
      }
    </style>
  </defs>
  <g id="Layer_1-2" data-name="Layer 1">
    <g>
      <rect class="cls-2" width="40" height="40" rx="7.15" ry="7.15"/>
      <path class="cls-1" d="m25.76,27.87c-.42.04-1.06.06-1.68.06-.74,0-1.5-.02-1.92-.08-.24-.02-.4-.12-.4-.44,0-.34-1.12-1.98-1.52-2.82-.06-.12-.14-.18-.22-.18s-.18.06-.22.18c-.38.88-1.71,2.38-1.71,2.92,0,.22-.14.32-.34.34-.36.04-1.02.08-1.7.08s-1.36-.04-1.76-.08c-.58-.06-.72-.2-.72-.6.06-2.72,2.47-4.66,3.29-5.64.06-.08.1-.16.1-.24,0-.06-.02-.12-.1-.2-1.36-1.5-3.29-4.44-3.29-6.34,0-.5.2-.68.74-.74.4-.06,1.04-.08,1.68-.08s1.26.02,1.6.08c.18.02.32.12.32.34,0,.54,1.45,3.04,1.89,3.96.06.14.14.2.2.2.08,0,.16-.08.22-.2.38-.9,1.96-3.14,1.96-3.92,0-.28.16-.36.36-.38.36-.06.92-.08,1.52-.08s1.2.02,1.6.08c.64.06.78.22.78.76,0,2.36-2.18,5.02-3.46,6.32-.08.1-.14.2-.14.28,0,.04.02.1.1.16,1.5,1.28,3.48,3.16,3.5,5.4,0,.5-.12.8-.68.86Z"/>
    </g>
  </g>
</svg>