<?xml version="1.0" encoding="UTF-8"?>
<svg id="Layer_2" data-name="Layer 2" xmlns="http://www.w3.org/2000/svg" viewBox="0 0 40 40">
  <defs>
    <style>
      .cls-1 {
        fill: #fff;
      }

      .cls-2 {
        fill: #253447;
      }
    </style>
  </defs>
  <g id="Layer_1-2" data-name="Layer 1">
    <g>
      <rect class="cls-2" width="40" height="40" rx="7.15" ry="7.15"/>
      <path class="cls-1" d="m10.77,16.25c0-2.82,1.36-4.72,4.1-4.72s3.82,1.82,3.82,4.72c0,3.3-1.84,4.72-4.08,4.72s-3.84-1.42-3.84-4.72Zm5.7,11.67c-.88,0-1.9-.86-2.5-1.1-.22-.1-.32-.24-.32-.38,0-.18.12-.38.26-.54,1.18-1.36,8.27-11.49,10.93-12.93.1-.06.2-.08.3-.08.24,0,.44.16.44.46,0,.58-7.67,12.57-8.29,14.05-.14.32-.38.52-.82.52Zm-1.1-11.93c0-1.36-.22-1.9-.66-1.9s-.64.54-.64,1.9.18,1.92.64,1.92c.5,0,.66-.56.66-1.92Zm5.88,7.76c0-2.82,1.36-4.72,4.1-4.72s3.82,1.82,3.82,4.72c0,3.3-1.84,4.72-4.08,4.72s-3.84-1.42-3.84-4.72Zm4.61-.01c0-1.36-.22-1.9-.66-1.9s-.64.54-.64,1.9.18,1.92.64,1.92c.5,0,.66-.56.66-1.92Z"/>
    </g>
  </g>
</svg>