<?xml version="1.0" encoding="UTF-8"?>
<svg id="Layer_2" data-name="Layer 2" xmlns="http://www.w3.org/2000/svg" viewBox="0 0 40 83.41">
  <defs>
    <style>
      .cls-1 {
        fill: #fff;
      }

      .cls-2 {
        fill: #253447;
      }
    </style>
  </defs>
  <g id="Layer_1-2" data-name="Layer 1">
    <g>
      <rect class="cls-2" width="40" height="83.41" rx="7.15" ry="7.15"/>
      <path class="cls-1" d="m23.2,50.96c-.78.06-1.77.09-2.79.09-1.14,0-2.31-.03-3.24-.09-.48-.03-.84-.18-.84-.81,0-.75.09-1.68.09-2.64,0-.66-.18-.9-.78-.9-.78,0-1.53.09-2.22.09-.75-.06-1.2-.36-1.2-1.26,0-1.35.18-2.7.66-4.41.24-.9.66-1.32,1.29-1.32.51,0,1.32.09,1.77.09.42,0,.72-.24.75-.72.06-1.02.06-1.95.18-2.85.09-.6.42-.72.84-.75.84-.03,1.56-.06,2.25-.06s1.44.03,2.25.06c.54.03.78.27.78.72,0,.84-.24,1.98-.24,2.85,0,.45.12.69.63.72.84,0,1.59-.06,2.25-.06.96.03,1.38.39,1.38,1.47,0,.6-.12,3.06-.36,4.26-.09.57-.3.96-.9,1.02-.39.03-1.11.03-1.8.03-.54,0-.72.24-.72.63,0,.48.57,2.94.57,3.33,0,.36-.24.48-.6.51Z"/>
    </g>
  </g>
</svg>